<svg width="48" height="26" viewBox="0 0 48 26" fill="none" xmlns="http://www.w3.org/2000/svg">
<path d="M9.2358 26H0.212358V0.545454H9.31037C11.8707 0.545454 14.0748 1.05504 15.9226 2.07422C17.7704 3.08511 19.1914 4.5393 20.1857 6.43679C21.1883 8.33428 21.6896 10.6046 21.6896 13.2479C21.6896 15.8994 21.1883 18.178 20.1857 20.0838C19.1914 21.9896 17.7621 23.4521 15.8977 24.4712C14.0417 25.4904 11.821 26 9.2358 26ZM5.59411 21.3888H9.01207C10.603 21.3888 11.9412 21.1071 13.0266 20.5437C14.1204 19.9719 14.9407 19.0895 15.4876 17.8963C16.0427 16.6948 16.3203 15.1454 16.3203 13.2479C16.3203 11.367 16.0427 9.8299 15.4876 8.63672C14.9407 7.44354 14.1245 6.56522 13.0391 6.00177C11.9536 5.43833 10.6154 5.15661 9.0245 5.15661H5.59411V21.3888ZM25.6762 26V0.545454H31.058V11.7688H31.3936L40.5537 0.545454H47.0044L37.5583 11.9428L47.1162 26H40.678L33.7053 15.5348L31.058 18.7663V26H25.6762Z" fill="white"/>
</svg>
