<svg width="16" height="16" viewBox="0 0 16 16" fill="none" xmlns="http://www.w3.org/2000/svg">
<g clip-path="url(#clip0_2014_5)">
<path d="M14 0H2C0.89543 0 0 0.89543 0 2V14C0 15.1046 0.89543 16 2 16H14C15.1046 16 16 15.1046 16 14V2C16 0.89543 15.1046 0 14 0Z" fill="#0E2943"/>
<path d="M4.56836 11H2.50586V5.18182H4.58541C5.17063 5.18182 5.67442 5.2983 6.09677 5.53125C6.51912 5.76231 6.84393 6.0947 7.0712 6.52841C7.30037 6.96212 7.41495 7.48106 7.41495 8.08523C7.41495 8.69129 7.30037 9.21212 7.0712 9.64773C6.84393 10.0833 6.51723 10.4176 6.09109 10.6506C5.66685 10.8835 5.15927 11 4.56836 11ZM3.73598 9.94602H4.51723C4.88086 9.94602 5.18673 9.88163 5.43484 9.75284C5.68484 9.62216 5.87234 9.42045 5.99734 9.14773C6.12423 8.87311 6.18768 8.51894 6.18768 8.08523C6.18768 7.6553 6.12423 7.30398 5.99734 7.03125C5.87234 6.75852 5.68579 6.55777 5.43768 6.42898C5.18957 6.30019 4.8837 6.2358 4.52007 6.2358H3.73598V9.94602ZM8.32617 11V5.18182H9.55629V7.74716H9.63299L11.7268 5.18182H13.2012L11.0421 7.78693L13.2268 11H11.7552L10.1614 8.60795L9.55629 9.34659V11H8.32617Z" fill="white"/>
</g>
<defs>
<clipPath id="clip0_2014_5">
<rect width="16" height="16" fill="white"/>
</clipPath>
</defs>
</svg>
